<svg width="29" height="29" viewBox="0 0 29 29" fill="none" xmlns="http://www.w3.org/2000/svg">
<rect x="1.20002" y="1.1999" width="26.4" height="26.4" rx="13.2" stroke="#FECDCA" stroke-width="2.4"/>
<circle cx="14.4" cy="14.3998" r="10.8" fill="#9D0202" stroke="#B42318" stroke-width="2.4"/>
<path fill-rule="evenodd" clip-rule="evenodd" d="M14.3997 4.40137C8.87681 4.40137 4.39966 8.87852 4.39966 14.4014C4.39966 19.9242 8.87681 24.4014 14.3997 24.4014C19.9225 24.4014 24.3997 19.9242 24.3997 14.4014C24.3997 8.87852 19.9225 4.40137 14.3997 4.40137ZM15.3997 18.4014C15.3997 18.9537 14.9519 19.4014 14.3997 19.4014C13.8474 19.4014 13.3997 18.9537 13.3997 18.4014C13.3997 17.8491 13.8474 17.4014 14.3997 17.4014C14.9519 17.4014 15.3997 17.8491 15.3997 18.4014ZM15.3997 14.4014C15.3997 14.9537 14.9519 15.4014 14.3997 15.4014C13.8474 15.4014 13.3997 14.9537 13.3997 14.4014L13.3997 10.4014C13.3997 9.84908 13.8474 9.40137 14.3997 9.40137C14.9519 9.40137 15.3997 9.84908 15.3997 10.4014L15.3997 14.4014Z" fill="#FECDCA"/>
</svg>
