<svg width="72" height="72" viewBox="0 0 72 72" fill="none" xmlns="http://www.w3.org/2000/svg">
<rect width="72" height="72" rx="7.89041" fill="#F4F4F4"/>
<path d="M14.7542 50.4992C14.5074 49.192 14.5796 47.3417 14.5818 45.9699L14.5851 39.8607L14.5838 28.9877C14.5832 27.0837 14.5915 25.1145 14.5998 23.2315C14.6181 19.1082 17.2415 16.0645 21.4314 15.8251C22.9416 15.7387 24.4003 15.7544 25.9297 15.7548L33.4462 15.7589L44.4106 15.7557C46.6162 15.7552 50.9418 15.6049 52.8555 16.1092C54.5867 16.5581 56.0641 17.6855 56.9543 19.2366C58.2573 21.4851 57.9318 24.7152 57.9306 27.2783L57.9263 36.1651L57.931 44.988C57.9314 45.9056 57.9917 49.1358 57.8061 49.8228C57.6666 50.9124 57.4098 51.588 56.8841 52.5435C56.8464 52.7896 56.7856 52.93 56.6562 53.1396C54.2229 57.0815 48.8945 56.4151 44.8588 56.4167L35.1882 56.4212L26.6804 56.434C23.8377 56.435 20.3016 56.7621 17.834 55.1804C16.8383 54.5421 15.6215 53.386 15.3412 52.1915C15.0583 51.5844 14.9338 51.1427 14.7542 50.4992Z" fill="#FE4B5D"/>
<path d="M14.7549 50.4967C14.8282 50.4156 14.8828 50.3635 14.9613 50.2882C15.2154 50.6556 15.3149 50.9797 15.529 51.3487C17.8912 55.4195 22.1738 54.8192 26.174 54.8201L36.1768 54.8171L46.1678 54.8193C49.863 54.819 54.5308 55.4211 56.7242 51.6794C56.9894 51.2271 57.5057 50.1605 57.8067 49.8203C57.6672 50.91 57.4105 51.5856 56.8847 52.541C56.8471 52.7872 56.7863 52.9276 56.6568 53.1372C54.2235 57.0791 48.8952 56.4127 44.8594 56.4143L35.1888 56.4188L26.681 56.4316C23.8383 56.4325 20.3023 56.7597 17.8346 55.1779C16.8389 54.5397 15.6221 53.3835 15.3419 52.189C15.0589 51.582 14.9344 51.1402 14.7549 50.4967Z" fill="#E92D41"/>
<path d="M15.3408 52.1875C15.6474 52.4589 15.9982 52.9459 16.2552 53.2826C18.725 56.5185 23.0947 55.9302 26.7564 55.9271L33.9113 55.9141C39.141 55.9096 44.3839 55.9154 49.6094 55.9247C51.9766 55.9288 54.2043 55.5156 55.8623 53.7295C56.2137 53.3509 56.5415 52.9355 56.8837 52.5395C56.846 52.7856 56.7852 52.9261 56.6558 53.1357C54.2225 57.0776 48.8941 56.4111 44.8583 56.4127L35.1878 56.4172L26.68 56.43C23.8373 56.431 20.3012 56.7581 17.8336 55.1764C16.8379 54.5381 15.6211 53.382 15.3408 52.1875Z" fill="#B5B8B7"/>
<path d="M34.0153 25.7228C33.9383 24.9915 34.1126 24.2736 34.639 23.7395C35.0882 23.2898 35.7063 23.0506 36.3413 23.0807C36.9322 23.108 37.4883 23.3681 37.8881 23.8042C38.4193 24.3864 38.5022 24.9637 38.4653 25.7039C41.1642 26.6954 42.8843 28.0607 43.4859 30.9989C43.9828 33.4256 43.6577 37.8045 44.8376 39.873C45.5444 40.2263 46.1525 40.3784 46.5929 41.162C46.9802 41.851 46.9151 42.6971 46.6952 43.4299C47.5851 44.7382 45.9105 46.4225 44.4465 46.4496C42.8217 46.4797 41.2156 46.5365 39.5869 46.4499C39.4498 46.3563 39.5078 46.4175 39.4202 46.2599C39.4547 46.667 39.447 46.746 39.3329 47.1395C39.5425 47.4232 39.5392 47.8096 39.4868 48.1438C39.0326 51.0367 34.7789 51.4133 33.3315 49.0897C33.0333 48.6109 32.827 47.7127 33.135 47.2277C33.0672 46.9362 33.0633 46.6804 33.0457 46.3837C31.9123 46.6599 29.1677 46.3909 27.9305 46.4279C26.6242 46.4671 24.9778 44.9513 25.7617 43.5849C25.7371 43.5172 25.7137 43.4491 25.6915 43.3806C25.5505 42.9417 25.5281 42.5455 25.5504 42.1098C25.6442 40.2772 27.0385 40.5222 27.8312 39.4106C28.2164 38.6893 28.2103 37.8315 28.3501 37.0422C28.7903 34.5575 28.5564 31.3918 29.6564 29.1081C30.5332 27.2881 32.1878 26.3231 34.0153 25.7228Z" fill="#F1F1F1"/>
<path d="M46.6953 43.4297C47.5852 44.738 45.9106 46.4223 44.4466 46.4494C42.8219 46.4795 41.2157 46.5363 39.5871 46.4497C39.4499 46.3561 39.508 46.4172 39.4203 46.2597C39.4548 46.6668 39.4471 46.7458 39.333 47.1393C39.5426 47.423 39.5394 47.8094 39.4869 48.1436C39.0327 51.0365 34.779 51.4131 33.3316 49.0895C33.0334 48.6107 32.8271 47.7125 33.1351 47.2275C33.0673 46.936 33.0635 46.6802 33.0458 46.3835C31.9124 46.6597 29.1678 46.3907 27.9307 46.4277C26.6243 46.4668 24.9779 44.9511 25.7618 43.5847C26.7841 45.2224 29.3324 44.8193 31.0627 44.8201L37.0649 44.822L41.9012 44.8234C43.7537 44.8265 45.565 45.1959 46.6953 43.4297Z" fill="#E92D41"/>
<path d="M33.0437 46.3847C33.3323 46.1019 38.8491 46.1077 39.4181 46.2608C39.4527 46.6679 39.4449 46.7469 39.3309 47.1404C39.5405 47.4241 39.5372 47.8106 39.4848 48.1447C39.0305 51.0376 34.7769 51.4142 33.3295 49.0907C33.0312 48.6118 32.825 47.7136 33.133 47.2286C33.0652 46.9371 33.0613 46.6814 33.0437 46.3847Z" fill="#F1F1F1"/>
<path d="M39.3309 47.1406C39.5405 47.4244 39.5372 47.8108 39.4848 48.1449C39.0305 51.0378 34.7769 51.4144 33.3295 49.0909C33.0312 48.612 32.825 47.7139 33.133 47.2288C33.4795 47.8682 33.8485 48.2841 34.5024 48.6382C35.3896 49.1077 36.4306 49.1924 37.3821 48.8725C38.2988 48.5646 38.904 47.9907 39.3309 47.1406Z" fill="#E92D41"/>
<path d="M25.9057 23.125C26.6136 23.1955 26.8794 23.5312 27.3533 24.0252C28.1254 24.8298 29.8163 26.252 27.9519 26.9661C27.432 26.8309 27.0641 26.4691 26.6662 26.1141C25.7888 25.3312 23.9634 23.9787 25.9057 23.125Z" fill="#F1F1F1"/>
<path d="M46.3861 23.1172C48.5276 23.3372 46.973 25.2454 46.0885 25.8786C45.609 26.222 45.3434 26.6017 44.7623 26.9216C41.9225 26.8799 45.4383 23.4353 46.3861 23.1172Z" fill="#F1F1F1"/>
<path d="M48.8674 28.8359C49.0095 28.8368 49.3855 28.9198 49.463 29.0436C50.919 31.3697 47.3677 30.8424 46.3334 30.8311C45.5909 30.8268 45.1055 29.8404 45.5849 29.4166C46.2574 28.8219 48.0183 28.8718 48.8674 28.8359Z" fill="#F1F1F1"/>
<path d="M23.4167 28.8137C24.2726 28.7641 26.3573 28.9055 26.9908 29.5637C27.4574 30.0485 26.7924 30.5994 26.394 30.8234C25.598 30.847 24.8084 30.8513 24.0134 30.8554C22.6678 30.8623 22.2346 29.508 23.4167 28.8137Z" fill="#F1F1F1"/>
</svg>
