<svg width="72" height="72" viewBox="0 0 72 72" fill="none" xmlns="http://www.w3.org/2000/svg">
<rect width="72" height="72" rx="7.89041" fill="#F4F4F4"/>
<path d="M14.8421 49.168C14.7544 48.6476 14.8101 46.5705 14.8138 45.9548L14.8234 39.8422L14.8238 28.5979C14.821 26.9385 14.8116 25.2792 14.8233 23.6177C14.8363 21.7756 15.1297 20.3026 16.201 18.7641C17.2878 17.2022 18.9427 16.2889 20.8068 15.973C22.9139 15.6921 25.5465 15.8027 27.7274 15.8042L39.1984 15.8078L47.0092 15.7983C49.8131 15.8005 52.9127 15.5101 55.2981 17.2401C58.3053 19.4212 58.1511 22.3535 58.1507 25.6664L58.1486 31.338C58.1474 33.4187 58.2975 49.1011 58.0348 49.7444C57.8846 50.8543 57.6609 51.4977 57.1888 52.5304L57.1532 52.609C56.2867 54.4794 54.168 55.9612 52.1436 56.2414C49.7763 56.5681 47.2621 56.4604 44.8644 56.4619L34.5346 56.4633L26.6144 56.4706C25.085 56.4735 23.5836 56.4662 22.0547 56.4284C19.31 56.3614 16.4386 54.7465 15.4659 52.0646C15.1172 51.1214 14.8887 50.1716 14.8421 49.168Z" fill="#50CB7E"/>
<path d="M14.8428 49.1719C15.1579 49.5707 15.3393 50.4251 15.5859 50.9295C17.822 55.5014 22.326 54.8552 26.5884 54.853L36.5937 54.8464L46.2042 54.8493C50.6455 54.8508 55.4909 55.4141 57.6084 50.4171C57.6868 50.2323 57.8371 49.7046 58.0355 49.7483C57.8853 50.8582 57.6616 51.5015 57.1895 52.5342L57.1539 52.6128C56.2874 54.4833 54.1687 55.965 52.1443 56.2452C49.777 56.572 47.2628 56.4643 44.8651 56.4657L34.5353 56.4672L26.6151 56.4745C25.0857 56.4774 23.5843 56.4701 22.0554 56.4323C19.3107 56.3653 16.4393 54.7504 15.4666 52.0685C15.1179 51.1253 14.8894 50.1755 14.8428 49.1719Z" fill="#2AAD73"/>
<path d="M15.4668 52.0625C15.8607 52.3784 16.1286 52.8383 16.411 53.2532C17.1002 54.2808 18.1468 55.0552 19.3128 55.4583C20.125 55.7393 21.1138 55.9423 21.9759 55.9707C23.798 56.0311 25.6503 55.9998 27.4743 55.9955L37.0049 55.9889L46.5156 55.9751C49.8155 55.9649 53.7797 56.5013 56.137 53.6956C56.481 53.2866 56.7597 52.842 57.1898 52.5283L57.1542 52.6069C56.2877 54.4773 54.169 55.9591 52.1446 56.2393C49.7773 56.566 47.2631 56.4583 44.8653 56.4598L34.5355 56.4612L26.6153 56.4685C25.0859 56.4714 23.5846 56.4641 22.0557 56.4263C19.311 56.3593 16.4396 54.7444 15.4668 52.0625Z" fill="#B5B8B7"/>
<path d="M34.7457 35.7761L41.3705 29.1438C42.5515 27.9604 43.7294 26.7385 44.9343 25.6111C46.2597 24.4168 47.2994 25.2196 48.3001 26.2625C49.3828 27.3906 49.92 27.6009 49.5973 29.2959C49.7971 29.6489 49.8184 30.4604 49.6544 30.801C49.1409 31.8679 47.5168 33.2478 46.6915 34.0716C45.2054 35.5774 43.7094 37.0737 42.2035 38.5606L37.7366 43.0321C36.6594 44.0969 35.4274 45.8508 33.6747 45.1907C32.6817 44.8174 31.7735 43.6777 31.0408 42.9186L28.5208 40.3451C27.4109 39.2098 26.2412 38.129 25.1295 36.9951C24.4707 36.3234 24.3378 35.5039 24.5762 34.6182C24.0403 32.758 24.9797 32.4945 26.0449 31.3119C28.2818 28.8272 29.514 30.5768 31.2297 32.2856C32.3953 33.4559 33.5674 34.6189 34.7457 35.7761Z" fill="#F1F1F1"/>
<path d="M49.598 29.2891C49.7979 29.642 49.8191 30.4535 49.6552 30.7941C49.1416 31.8611 47.5176 33.2409 46.6923 34.0648C45.2061 35.5706 43.7101 37.0669 42.2042 38.5538L37.7373 43.0253C36.6601 44.09 35.4281 45.844 33.6755 45.1839C32.6824 44.8105 31.7743 43.6708 31.0415 42.9117L28.5215 40.3383C27.4116 39.2029 26.2419 38.1222 25.1303 36.9883C24.4714 36.3165 24.3386 35.4971 24.5769 34.6114C24.9175 35.0604 25.7293 35.8457 26.153 36.2692L28.8118 38.914C30.2792 40.3718 31.9086 42.1206 33.4867 43.4045C35.0557 44.6803 38.0433 40.9569 39.1266 39.8805L44.6465 34.385C45.5045 33.5277 49.1413 30.035 49.598 29.2891Z" fill="#2AAD73"/>
</svg>
