<svg width="72" height="72" viewBox="0 0 72 72" fill="none" xmlns="http://www.w3.org/2000/svg">
<rect width="72" height="72" rx="7.89041" fill="#F4F4F4"/>
<path d="M14.3511 48.7982C14.239 47.5244 14.3082 45.163 14.3089 43.8339L14.314 34.4205L14.3169 26.3051C14.3198 23.3794 13.9578 20.0779 15.9929 17.7321C17.4984 15.9959 19.3404 15.3207 21.61 15.2389C23.4462 15.1544 25.3254 15.1856 27.1681 15.1842L37.4832 15.1853L45.9096 15.1827C47.6744 15.1832 49.3198 15.1503 51.0788 15.2937C54.8976 15.605 57.4847 18.3357 57.6275 22.1653C57.7083 24.3309 57.6807 26.5009 57.6763 28.6841V38.9852L57.6756 45.1596C57.6748 45.9979 57.6989 48.1102 57.559 48.8895C57.4607 50.0619 57.2786 50.6553 56.8073 51.7381C54.9194 56.4444 49.3817 55.7883 45.2621 55.7887L36.2384 55.7843L26.8505 55.7976C24.2918 55.8007 20.9785 56.0658 18.6033 55.1293C17.2697 54.6036 15.8224 53.3716 15.2572 52.0196C15.0314 51.6231 14.9265 51.333 14.7619 50.9087C14.5157 50.1019 14.4196 49.6383 14.3511 48.7982Z" fill="#FEDF89"/>
<path d="M14.3486 48.8047C14.7725 49.6219 14.8665 50.2547 15.4295 51.0716C17.9213 54.8603 21.8755 54.2849 25.8203 54.2855L34.8214 54.2693L44.6033 54.2815C46.7433 54.2824 50.8483 54.4345 52.7035 53.9136C54.5142 53.4076 56.0313 52.1674 56.8864 50.4932C57.1384 49.9908 57.279 49.3601 57.5565 48.896C57.4582 50.0684 57.2761 50.6619 56.8049 51.7446C54.9169 56.4509 49.3792 55.7949 45.2596 55.7952L36.2359 55.7908L26.8481 55.8041C24.2893 55.8072 20.976 56.0724 18.6008 55.1358C17.2672 54.6101 15.8199 53.3781 15.2547 52.0261C15.0289 51.6296 14.924 51.3395 14.7594 50.9153C14.5132 50.1084 14.4171 49.6448 14.3486 48.8047Z" fill="#E99622"/>
<path d="M56.804 51.7422C54.9161 56.4484 49.3784 55.7924 45.2588 55.7928L36.2351 55.7884L26.8472 55.8016C24.2885 55.8048 20.9752 56.0699 18.6 55.1334C17.2664 54.6076 15.8191 53.3756 15.2539 52.0236C15.4833 52.2334 15.7878 52.6021 15.9997 52.849C18.5009 55.7713 21.8449 55.388 25.384 55.3852L33.0631 55.378L44.2587 55.3764C45.0097 55.3766 45.7672 55.3874 46.5174 55.3777C49.5765 55.3378 53.2059 55.7489 55.5148 53.2983C55.9832 52.8017 56.3124 52.2946 56.7509 51.801L56.804 51.7422Z" fill="#B5B8B7"/>
<path d="M35.9302 22.3281C37.5581 22.4128 38.3367 23.0943 39.135 24.4189C39.6353 25.2482 40.1437 26.0843 40.6405 26.9167L44.0499 32.6316L47.5373 38.4531C48.4995 40.063 49.7749 41.7425 49.8222 43.6339C49.8623 45.2316 48.4172 46.8891 46.8818 47.1935C45.5365 47.4603 43.8832 47.357 42.5036 47.356L36.2477 47.3518L29.2875 47.3572C28.337 47.3581 26.2597 47.4097 25.4286 47.2654C24.862 47.1715 24.3252 46.9474 23.8598 46.6108C22.4373 45.5976 21.8327 43.6887 22.5232 42.0314C22.9595 40.9839 23.8525 39.6575 24.4424 38.6561L28.2175 32.2673C29.3815 30.2834 30.5548 28.3055 31.7384 26.3337C32.9206 24.3702 33.4348 22.6333 35.9302 22.3281Z" fill="#DC6803"/>
<path d="M35.9321 21.6953C37.56 21.7799 38.3386 22.4615 39.1369 23.7861C39.6373 24.6154 40.1457 25.4515 40.6424 26.2839L44.0519 31.9988L47.5393 37.8203C48.5015 39.4302 49.7768 41.1097 49.8242 43.0011C49.8642 44.5988 48.4192 46.2563 46.8838 46.5607C45.5385 46.8275 43.8851 46.7242 42.5056 46.7232L36.2497 46.719L29.2895 46.7244C28.3389 46.7253 26.2617 46.7769 25.4306 46.6326C24.8639 46.5387 24.3271 46.3146 23.8617 45.978C22.4392 44.9648 21.8347 43.0559 22.5252 41.3986C22.9614 40.3511 23.8544 39.0247 24.4444 38.0233L28.2195 31.6345C29.3834 29.6506 30.5568 27.6727 31.7404 25.7009C32.9225 23.7373 33.4367 22.0005 35.9321 21.6953Z" fill="#F79009"/>
<path d="M35.0811 29.9078C35.4656 29.8946 35.8502 29.8843 36.2348 29.877C36.9479 29.8652 37.5815 29.8889 38.114 30.4022C38.5976 31.569 37.6078 36.3305 37.5174 37.8186C37.4905 38.2694 37.4126 38.5667 37.0542 38.83C36.3091 39.0024 34.6819 39.1052 34.588 38.0892C34.5173 37.3343 34.4248 36.5751 34.3447 35.8197C34.1852 34.3278 33.8785 32.8342 33.8152 31.3348C33.7751 30.3196 34.1845 30.0649 35.0811 29.9078Z" fill="#343535"/>
<path d="M35.6032 40.1515C36.6302 39.8949 37.671 40.5173 37.931 41.5434C38.1918 42.5695 37.5727 43.6126 36.5471 43.8761C35.5172 44.1409 34.4677 43.5184 34.2069 42.4874C33.9454 41.4564 34.5711 40.4093 35.6032 40.1515Z" fill="#343535"/>
</svg>
