<svg width="72" height="72" viewBox="0 0 72 72" fill="none" xmlns="http://www.w3.org/2000/svg">
<rect width="72" height="72" rx="7.89041" fill="#F4F4F4"/>
<path d="M14.8489 49.0796C14.7695 48.7206 14.8044 46.8968 14.8052 46.4329L14.8095 40.9166L14.8161 28.9036C14.8154 27.6676 14.8154 26.42 14.8154 25.1833C14.8146 22.927 14.7214 21.0013 15.9646 19.0253C18.2778 15.3466 22.3783 15.7989 26.1546 15.7989L34.8734 15.8032L45.5382 15.8069C47.6977 15.8083 50.056 15.7122 52.1733 15.9504C55.9453 16.375 58.2562 19.7376 58.1929 23.3785C58.1819 31.7776 58.2045 40.1686 58.1856 48.5669C58.1856 48.7694 58.1608 49.2879 58.0792 49.47C57.9598 50.6958 57.5884 51.6972 57.021 52.7766C54.8316 56.9688 49.1194 56.2412 45.1486 56.242L35.2259 56.2427L26.6157 56.2434C24.2857 56.2434 20.9347 56.483 18.8546 55.4874C17.1984 54.7088 15.9246 53.2973 15.3201 51.5705C15.0411 50.6127 14.9217 50.0774 14.8489 49.0796Z" fill="#639EEF"/>
<path d="M14.8486 49.0844L14.9266 48.9766C15.0394 49.1273 15.3927 50.3167 15.5587 50.6648C17.7284 55.2205 22.3059 54.6917 26.5164 54.6852L35.4427 54.6742L45.6531 54.6823C50.0638 54.6837 55.181 55.4193 57.4243 50.691C57.5481 50.431 57.8656 49.5789 58.079 49.4747C57.9596 50.7005 57.5881 51.7019 57.0208 52.7813C54.8314 56.9736 49.1192 56.246 45.1484 56.2467L35.2257 56.2474L26.6154 56.2482C24.2855 56.2482 20.9345 56.4878 18.8544 55.4922C17.1982 54.7136 15.9244 53.3021 15.3199 51.5752C15.0409 50.6175 14.9215 50.0822 14.8486 49.0844Z" fill="#3679D3"/>
<path d="M15.3184 51.5703C15.6075 51.7575 15.901 52.2294 16.0707 52.5332C17.2608 54.6657 19.5812 55.7057 21.9541 55.772C24.0036 55.8288 26.0684 55.8099 28.1237 55.8099L39.4892 55.8033L46.9371 55.8084C50.1046 55.8099 53.7076 56.1573 56.1096 53.6599C56.4373 53.319 56.5968 52.9796 57.0193 52.7764C54.8299 56.9686 49.1177 56.2411 45.1469 56.2418L35.2242 56.2425L26.6139 56.2432C24.284 56.2432 20.933 56.4829 18.8529 55.4872C17.1967 54.7087 15.9229 53.2972 15.3184 51.5703Z" fill="#A3B1C3"/>
<path d="M34.6789 36.3171C33.9346 36.1678 33.078 36.0324 32.6403 35.3324C32.365 34.8925 32.2652 34.2349 32.384 33.7309C32.4918 33.2757 32.7889 32.9479 33.1902 32.7214C33.5289 32.5306 33.9149 32.4155 34.2994 32.3653C34.9564 32.2793 38.4524 32.272 39.0161 32.4279C39.3351 32.516 39.6439 32.7447 39.8034 33.0375C40.1807 33.7301 39.9629 42.0629 39.9877 43.5559C41.949 43.6659 42.7575 44.3454 42.421 46.3869C42.5463 46.8203 42.4902 47.3789 42.4647 47.8305C41.9884 48.6644 41.48 48.9077 40.523 48.9725C39.4895 49.0417 38.4065 49.0329 37.3701 49.0206C35.9571 49.0031 34.4939 49.1123 33.1086 48.8414C32.5631 48.7343 32.247 48.282 32.0001 47.8465C31.9805 47.3964 31.928 46.781 32.1065 46.3797C31.9994 44.5785 32.3221 43.6681 34.2944 43.6171C34.4313 43.6135 34.5682 43.6113 34.7059 43.6106C34.7284 41.1794 34.719 38.7475 34.6789 36.3171Z" fill="#F1F1F1"/>
<path d="M32.1065 46.3828C32.3403 46.798 32.7153 47.2867 33.2062 47.3602C34.0322 47.4848 35.4152 47.6239 36.2339 47.5212C38.0678 47.2918 41.4691 48.2721 42.421 46.3901C42.5463 46.8234 42.4902 47.3821 42.4647 47.8336C41.9884 48.6676 41.48 48.9108 40.523 48.9756C39.4895 49.0448 38.4065 49.0361 37.3701 49.0237C35.9571 49.0062 34.4939 49.1155 33.1086 48.8446C32.5631 48.7375 32.247 48.2852 32.0001 47.8497C31.9805 47.3996 31.928 46.7841 32.1065 46.3828Z" fill="#3679D3"/>
<path d="M33.5311 28.483C32.5268 27.0191 32.6899 25.0504 33.9215 23.7715C35.1531 22.4925 37.1137 22.2551 38.6148 23.2034C40.1159 24.1516 40.7437 26.0242 40.1181 27.6855C40.2951 27.9943 40.2717 28.3825 40.1829 28.7262C39.9986 29.44 39.3024 30.1108 38.6745 30.4662C37.7467 30.9906 36.5719 31.0518 35.5617 30.7372C34.7234 30.4757 33.7234 29.7415 33.4182 28.8777C33.3789 28.7678 33.3614 28.6891 33.424 28.5937C33.4794 28.5085 33.4525 28.5383 33.5311 28.483Z" fill="#F1F1F1"/>
<path d="M40.1191 27.6875C40.2961 27.9963 40.2728 28.3845 40.1839 28.7283C39.9996 29.442 39.3034 30.1128 38.6756 30.4682C37.7477 30.9926 36.5729 31.0538 35.5627 30.7392C34.7244 30.4777 33.7244 29.7436 33.4192 28.8798C33.3799 28.7698 33.3624 28.6911 33.4251 28.5957C33.4804 28.5105 33.4535 28.5404 33.5321 28.485C34.3209 29.635 35.6836 30.2505 37.0674 30.083C38.4512 29.9154 39.6275 28.9919 40.1191 27.6875Z" fill="#3679D3"/>
</svg>
