<svg width="72" height="78" viewBox="0 0 72 78" fill="none" xmlns="http://www.w3.org/2000/svg">
<rect width="72" height="72" rx="7.89041" fill="#F4F4F4"/>
<path d="M14.7949 25.4922H57.3576V22.9126C57.3576 20.0633 55.0478 17.7535 52.1985 17.7535H19.954C17.1047 17.7535 14.7949 20.0633 14.7949 22.9126V25.4922Z" fill="#FF4162"/>
<path d="M14.7949 26.6328H57.2059V51.0627C57.2059 53.912 54.8961 56.2219 52.0468 56.2219H19.954C17.1047 56.2219 14.7949 53.912 14.7949 51.0627V26.6328Z" fill="#C3C3C3"/>
<path d="M14.7949 25.6406H57.2059V50.0706C57.2059 52.9199 54.8961 55.2297 52.0468 55.2297H19.954C17.1047 55.2297 14.7949 52.9199 14.7949 50.0706V25.6406Z" fill="white"/>
<rect x="47.042" y="15.1719" width="2.57956" height="6.44889" rx="1.28978" fill="#5B5959"/>
<rect x="23.8252" y="15.1719" width="2.57956" height="6.44889" rx="1.28978" fill="#5B5959"/>
<rect x="19.9531" y="31.5625" width="6.44889" height="6.44889" rx="1.28978" fill="#E7E7E7"/>
<rect x="32.8506" y="31.5625" width="6.44889" height="6.44889" rx="1.28978" fill="#E7E7E7"/>
<rect x="45.749" y="31.5625" width="6.44889" height="6.44889" rx="1.28978" fill="#E7E7E7"/>
<rect x="19.9531" y="41.0078" width="6.44889" height="6.44889" rx="1.28978" fill="#E7E7E7"/>
<rect x="32.8506" y="41.0078" width="6.44889" height="6.44889" rx="1.28978" fill="#E7E7E7"/>
<rect x="45.749" y="41.0078" width="6.44889" height="6.44889" rx="1.28978" fill="#E7E7E7"/>
<path fill-rule="evenodd" clip-rule="evenodd" d="M52.4831 39.7412C52.9426 39.3241 53.6451 39.3647 54.0514 39.832C54.4574 40.2992 54.4141 41.0156 53.9548 41.4326L50.0456 44.9814L49.2135 45.7363L49.193 45.7129C49.1869 45.7194 49.1818 45.7269 49.1755 45.7334C48.7429 46.1771 48.0396 46.1784 47.6052 45.7363L45.6989 43.7959C45.2648 43.3538 45.2628 42.6354 45.695 42.1914C46.1275 41.7476 46.8309 41.7457 47.2653 42.1875L48.4538 43.3974L48.5749 43.2881L52.4831 39.7412Z" fill="#43C597"/>
</svg>
