<svg width="140" height="41" viewBox="0 0 140 41" fill="none" xmlns="http://www.w3.org/2000/svg">
<path d="M63.4648 6.55137L63.5356 6.54672C64.2764 6.50004 67.8585 6.37232 68.3075 6.65003C68.9707 7.05982 69.7348 9.49896 70.0711 10.2872C70.4034 11.0664 70.7793 11.8315 71.0891 12.6195C71.3156 13.194 71.4704 13.919 71.8034 14.4376C71.9023 14.5918 72.0306 14.5432 72.1111 14.6368C72.1991 14.7388 72.5859 16.1771 72.6951 16.4513C73.2177 17.7668 73.8044 19.1039 74.3918 20.3911C74.6293 20.9112 74.9076 21.4134 75.1273 21.9415C75.3272 22.4217 75.4575 22.9303 75.6717 23.4044C76.0374 24.2115 76.5184 25.0235 76.8336 25.8445C76.9319 26.1005 76.8589 26.3516 77.0936 26.5605C77.4974 26.5164 77.4708 26.0091 77.4661 25.6866C77.6107 25.5038 77.7581 25.3066 77.8645 25.0987C78.2213 24.3997 80.2503 19.8354 80.3029 19.3247C80.352 18.8527 81.2028 17.3279 81.4409 16.806C81.7888 16.0417 82.087 15.2577 82.4308 14.4931C82.7869 13.7011 83.1881 12.9358 83.5245 12.133C83.796 11.4843 84.0116 10.8123 84.2872 10.1657C84.7668 9.04006 85.3877 8.02804 85.6872 6.82537C86.3415 6.42882 86.8095 6.49443 87.5511 6.49593C88.6379 6.49811 89.7241 6.50884 90.8102 6.5357L90.8198 31.6861C90.2917 31.8409 87.65 31.9536 87.24 31.6732C87.1336 31.0833 87.2045 27.9666 87.2086 27.1394C87.2257 23.6661 87.2243 20.3457 87.1049 16.8705C87.1261 16.4648 87.1595 16.0119 87.1479 15.6095C87.1001 15.0854 87.358 13.6278 87.0974 13.2332C86.8879 13.281 86.6846 13.6799 86.5912 13.8756C86.3967 14.2853 86.2651 14.7732 86.0911 15.1964C85.9246 15.6019 85.7315 16.0016 85.5562 16.406C85.3652 16.8462 85.1973 17.424 85.0029 17.8447C84.8084 18.2651 84.4666 18.7084 84.2456 19.1708C83.987 19.7131 83.7482 20.7653 83.5067 21.2297C82.7938 22.6032 82.2787 24.0018 81.5575 25.3619C81.4074 25.7002 81.3999 26.0635 81.2423 26.4007C80.9681 26.9873 80.6481 27.5576 80.3759 28.1444C79.8915 29.1888 79.5531 30.3051 79.0591 31.3463C79.0086 31.453 78.5508 31.8023 78.4451 31.8843C77.4729 31.8084 76.704 31.8854 75.7754 31.8138C75.5564 31.7969 75.2501 31.4084 75.1607 31.2212C74.6886 30.2363 74.2554 29.1833 73.8645 28.1615C73.7669 27.9068 73.5022 27.8763 73.3569 27.4822C73.0505 26.6505 72.8104 25.7815 72.4993 24.9551C72.3444 24.5438 71.8668 23.917 71.6929 23.5039C71.5155 23.0823 71.4309 22.5118 71.248 22.0744C71.0031 21.489 70.5787 20.7816 70.3495 20.213C69.7846 18.8135 69.2743 17.5303 68.6268 16.17C68.1015 15.0653 68.2796 14.3648 67.2625 13.2379L67.1712 13.2507C66.9826 13.632 67.0686 14.6313 67.0878 15.0794C67.0701 16.0037 67.0441 16.932 67.0679 17.856C67.0209 18.9971 67.0561 20.3021 67.0525 21.4612L67.0441 28.5585C67.0453 29.0221 67.1259 31.3631 67.0506 31.6624C66.9337 31.7212 66.7704 31.8733 66.6129 31.8672C65.965 31.842 64.0029 32.0001 63.5552 31.6228C63.4375 31.1174 63.4687 29.6951 63.4687 29.1012L63.4702 24.9255L63.4693 12.7262C63.487 10.6679 63.4855 8.60954 63.4648 6.55137Z" fill="#9EA8F4"/>
<path d="M32.7181 14.2665C34.2003 14.1465 35.7975 14.2652 37.092 15.065C37.536 15.3394 38.2785 16.3204 38.7736 16.2859C38.7918 16.1334 38.6754 14.8758 38.6582 14.6142C39.4976 14.5301 41.1637 14.5803 42.0653 14.5827C42.2131 15.4618 42.1752 16.6848 42.1723 17.5973L42.1505 21.9801L42.1537 27.8614C42.1543 30.1618 42.3129 33.2466 41.1829 35.2486C39.8418 37.6246 37.9341 38.7362 35.2905 39.0306C35.1113 39.0505 34.8217 39.2604 34.6687 39.2752C32.9051 39.4552 30.2225 38.7498 28.722 37.8039C27.295 36.9045 26.0721 35.0425 25.7738 33.3676C25.7174 33.0506 25.6362 32.858 25.811 32.5806C26.0551 32.4243 26.4529 32.3904 26.7484 32.3451L26.8235 32.3281C26.999 32.2887 27.3588 32.2774 27.4838 32.2282C27.9496 32.0445 28.3257 31.8965 28.8072 31.7479C29.3148 32.1003 29.2964 33.479 29.9493 34.1956C31.0319 35.3836 31.5695 35.7949 33.2845 35.9137C34.7338 36.0142 36.6387 35.642 37.5995 34.4506C37.9509 34.015 37.7821 33.7404 38.4737 33.1101C38.4965 31.7973 38.5308 30.4847 38.5766 29.1725C38.3251 29.1123 38.2079 29.1722 38.0375 29.3741C36.885 30.8126 34.9945 30.9966 33.3637 31.0358C30.1465 31.1131 26.7812 28.7803 26.1686 25.5355C26.127 25.315 25.7422 24.8819 25.7133 24.7125C25.5122 23.5329 25.6201 21.7955 25.6446 20.637C26.4315 20.0534 26.4143 18.6283 26.8484 17.7774C26.8847 17.7065 27.193 17.6284 27.2528 17.5521C27.4665 17.2793 27.6777 16.9547 27.9024 16.6939C29.1345 15.2858 30.8612 14.4154 32.7181 14.2665ZM29.6486 20.5245L29.6313 20.5917C29.0321 22.3871 29.2295 24.8602 30.4878 26.3354C30.7891 26.6886 31.2533 26.9301 31.3545 27.3274C31.5861 27.5389 31.9095 27.509 32.2016 27.6004C32.2714 27.6054 32.4656 27.8697 32.4912 27.8783C33.758 28.3031 35.0556 28.0281 36.2548 27.5489C36.3616 27.5063 36.5047 26.9949 36.6863 26.9759C36.882 26.9555 37.0837 27.0276 37.258 26.898C37.2422 26.3745 38.2494 25.8199 38.4773 24.8722C38.8439 23.3481 38.9711 21.4646 38.2398 20.0363C37.6067 18.7998 36.7281 17.903 35.4273 17.4724C34.5739 17.1899 32.7033 17.2782 31.9441 17.76C30.9851 18.3687 29.9694 19.4097 29.6486 20.5245Z" fill="white"/>
<path d="M15.1828 6.49834L15.6397 6.52785C15.7429 6.82248 15.8474 7.17709 16.0304 7.42298L16.1805 7.3897C16.3026 7.77022 16.411 8.17838 16.5444 8.55106C16.8827 9.49618 17.3002 10.4047 17.5795 11.3733C17.6458 11.6029 17.9246 11.6995 17.9838 11.9042C18.1417 12.4503 18.2537 13.0118 18.4287 13.5534C18.6252 14.1407 18.9583 14.6701 19.1831 15.2459C19.4027 15.8086 19.5619 16.3938 19.7832 16.9557C19.873 17.1845 20.2611 17.599 20.3158 17.7511C20.4669 18.1702 20.4714 18.8106 20.6787 19.2272C21.091 19.4779 21.1219 20.3857 21.3399 20.9203L23.9071 27.3734C24.1624 28.0106 25.5631 31.0401 25.5515 31.585C25.1896 32.121 22.1803 31.9168 21.6131 31.6623C20.9173 30.3595 20.5445 28.3635 19.8392 26.9783C19.4407 26.1957 19.618 24.9855 18.3471 24.8625C17.6411 24.7941 16.9956 24.8227 16.3163 24.8226L12.3791 24.8268C11.1028 24.857 9.88273 24.6598 8.62527 24.7782C8.1419 24.8237 7.89608 25.2065 7.77724 25.6518C7.22823 27.7092 6.34771 29.6217 5.65408 31.6276C5.26594 31.9655 2.33504 31.9502 1.90986 31.7752C1.5341 31.2985 2.24012 30.1952 2.36048 29.673C2.41437 29.4392 2.42871 29.1333 2.4413 28.8927C3.78382 27.2554 3.9859 24.6849 5.06066 22.8643C5.37272 22.3358 5.86861 20.9137 5.87797 20.3325C6.19877 19.9684 6.37859 19.7346 6.52193 19.2578C6.86739 18.1089 7.38515 17.0189 7.65627 15.85C7.65498 15.8556 7.92535 15.5765 7.93033 15.5721C8.27548 15.2699 8.18679 15.0573 8.23946 14.6495C8.58809 13.7787 8.99185 12.9275 9.34655 12.0592C9.76047 11.0457 9.92066 10.2262 10.5661 9.32345C10.5844 9.06608 10.5818 8.73988 10.5871 8.47653C10.9442 7.95298 11.2854 7.10675 11.5272 6.52413C12.4504 6.45113 14.2156 6.50166 15.1828 6.49834ZM13.7613 21.2445C14.3704 21.2507 17.1804 21.5578 17.4406 21.3022C17.6214 20.6513 16.7678 19.1296 16.4053 18.5599C16.3297 18.4408 16.4071 17.7703 16.318 17.5803C15.3618 15.5417 14.5326 13.4123 13.8873 11.2533C13.7686 10.8559 13.784 10.9021 13.3655 10.9241C12.6444 12.59 12.012 14.7262 11.3945 16.4533C10.9567 17.6779 9.71797 20.0988 9.62388 21.2743L9.68297 21.3629C9.95546 21.3731 10.3529 21.403 10.6108 21.3454C10.7446 21.3155 10.9482 21.1657 11.1035 21.1754C12.028 21.2322 12.8311 21.2657 13.7613 21.2445Z" fill="white"/>
<path d="M122.206 18.7486C122.832 18.0925 122.722 17.7871 123.413 16.9961C124.309 15.9721 125.424 15.1149 126.64 14.522C127.332 14.2827 128.262 14.1622 128.964 14.1047C133.55 13.7295 137.113 16.4462 137.474 21.2038C137.413 22.1674 137.616 22.9217 137.763 23.8677C137.742 23.897 137.618 24.073 137.606 24.0785C136.511 24.6054 125.607 23.9928 125.144 24.3828C124.994 24.9554 125.39 26.3513 125.672 26.8181C127.071 29.1271 130.665 30.2526 132.786 28.2235C132.838 28.1739 133.137 28.3036 133.318 28.1088C133.326 27.8635 133.287 27.7718 133.412 27.5913C133.559 27.5465 133.838 27.5003 133.899 27.3591C134.411 26.1839 133.915 25.7446 135.427 25.8147C135.601 25.9738 135.78 26.1367 135.995 26.2284C136.496 26.4419 137.456 26.4879 137.486 27.2334C137.519 28.0285 136.492 29.2563 136.011 29.8612C135.782 30.1483 135.74 30.0627 135.562 30.4829C134.693 30.9364 134.144 31.6754 133.121 31.7562C133.017 31.7643 132.627 32.1615 132.612 32.164C131.07 32.4321 128.599 32.5153 127.122 32.0181C126.864 31.9139 126.618 31.7851 126.369 31.6601C125.548 31.6067 125.698 31.1964 124.591 31.035C124.554 30.3032 123.944 30.1542 123.526 29.6764C123.065 29.1487 122.637 28.4106 122.207 27.8838C121.515 27.0385 121.776 26.7646 121.659 25.7589C121.307 23.7832 121.271 22.3155 121.702 20.3378C121.827 19.762 122.136 19.1708 122.202 18.7734L122.206 18.7486ZM130.275 21.3101L130.299 21.2977C130.996 20.9426 133.034 21.2146 133.863 21.3135C133.978 21.3272 134.015 21.2162 134.063 21.1207C134.068 20.8424 133.873 19.9306 133.699 19.822C133.228 19.528 133.266 18.8815 133.059 18.648C132.049 17.5048 130.9 17.2294 129.515 17.214C129.483 17.214 129.453 17.2148 129.421 17.2166C128.995 17.2762 127.826 17.467 127.484 17.637C127.257 18.3082 127.595 18.096 126.747 18.3283C126.089 18.5086 124.875 20.7505 125.478 21.1908C126.621 21.1751 129.125 21.2332 130.275 21.3101Z" fill="#9EA8F4"/>
<path d="M51.3352 14.1161C52.7347 13.9496 55.099 14.1703 56.3985 14.7901C56.9109 15.0345 57.4651 15.7489 58.0667 15.8924C58.8014 16.8365 59.1259 17.1459 59.7213 18.272C60.7192 20.1593 60.608 21.8922 60.6072 23.9515C60.6071 24.4308 57.3582 24.2726 56.9457 24.2724L50.4719 24.2651C50.0173 24.2626 48.4357 24.1881 48.1242 24.3367C48.0184 24.4673 47.8483 24.6944 47.9131 24.7887C48.2446 25.2702 48.2919 25.8712 48.4064 26.3156C48.714 27.5095 49.7548 27.9205 50.5186 28.6314C51.7355 28.6728 51.3011 29.1013 52.2414 29.2627C53.8831 29.479 55.7832 28.6849 56.8126 27.3879C57.0994 27.0265 57.432 25.9486 57.6931 25.7953C58.6047 25.7671 58.572 26.2468 59.106 26.351C61.1855 26.757 60.7449 27.1978 59.7115 28.8527C58.634 30.5626 56.8841 31.8388 54.9016 32.2267C54.1962 32.3648 51.1115 32.4161 50.3933 32.2224C48.9269 31.8267 47.3076 30.1994 46.0681 29.3584C46.0576 29.2743 46.0451 29.1903 46.0305 29.1067C45.9352 28.588 45.6792 28.7 45.5908 28.5336C42.6982 23.0941 44.6323 15.2586 51.3352 14.1161ZM49.5062 18.2579C48.7985 19.2342 48.2165 19.9886 48.1165 21.2518C48.8514 21.295 49.4108 21.2416 50.1363 21.149C51.1959 21.0137 52.3315 21.0545 53.4008 21.0545C54.1472 21.0546 55.144 21.0212 55.881 21.1259C56.2272 21.175 56.6434 21.5126 56.9945 21.2718C57.0956 20.9695 56.9129 19.8032 56.5568 19.7363C56.39 19.705 56.279 19.5969 56.2219 19.4284C55.56 17.4776 53.8412 17.056 51.7569 17.2786C51.477 17.3402 51.1023 17.4138 50.8396 17.5192C50.3293 17.7238 50.0431 18.1872 49.5231 18.234L49.5062 18.2579Z" fill="white"/>
<path d="M97.7526 20.5331C97.3842 20.5143 94.5938 19.8724 94.3523 19.717C94.0275 19.0155 94.8414 18.4873 94.9008 17.9053C94.9315 17.6013 94.9288 17.5311 95.1184 17.2681C96.1691 15.8111 97.5663 14.5567 99.3859 14.2532C101.066 13.9729 102.979 14.0208 104.628 14.4578C104.804 14.5042 105.072 14.5868 105.25 14.6452C105.283 14.6616 105.495 14.9421 105.491 14.941C106.636 15.2019 107.27 16.3181 107.873 17.2333C107.904 17.2806 108.222 17.6715 108.225 17.7017C108.282 18.2591 108.338 18.8041 108.423 19.3599C108.311 20.9582 108.124 29.4983 108.461 30.7531C108.433 31.1488 108.768 31.1923 108.71 31.5728L108.597 31.6668C107.819 31.7255 106.29 31.6524 105.667 31.8065C104.859 31.593 105.506 30.5301 105.057 30.2535C104.667 30.3166 103.718 31.2723 103.369 31.5924C102.582 31.6631 102.47 32.0409 102.051 32.1384C100.789 32.4313 99.0946 32.4739 97.829 32.1439C96.9639 31.9665 96.4468 31.2955 95.6635 31.0344C95.2153 30.885 95.9453 30.6426 94.9793 30.4334C94.8476 29.8302 94.2786 29.4201 94.2642 29.292C94.1858 28.5866 94.0282 28.2955 93.8133 27.6628C93.5438 26.8704 94.2001 25.4636 94.5597 24.7359C95.5885 22.8576 96.5764 22.6546 98.4158 22.1301C98.441 22.0317 98.5392 21.7986 98.6068 21.7888C99.6479 21.6373 100.808 21.7275 101.869 21.5265C102.178 21.4681 102.238 21.1383 102.552 21.1049C103.161 21.04 104.076 21.2444 104.566 20.8582C104.871 20.6182 104.757 19.401 104.805 18.8522C103.806 17.3231 102.383 16.8789 100.569 17.2554C100.148 17.3428 99.9031 17.4814 99.4337 17.5589C98.673 18.5221 97.8515 18.8158 97.7526 20.5331ZM97.87 28.1218C98.1858 28.4332 98.5836 28.8298 98.954 29.0662C100.986 29.983 103.698 28.8791 104.551 26.849C104.805 26.2439 105.164 24.6336 105.047 24.0191C104.804 23.8067 104.266 23.9281 103.946 23.9678C102.956 24.088 101.964 24.2426 100.982 24.3941C99.8526 24.5681 98.8619 24.8029 98.1374 25.7767C97.5165 26.6121 97.6196 27.1874 97.87 28.1218Z" fill="#9EA8F4"/>
<path d="M110.441 17.7224C109.545 17.5083 109.922 17.1904 109.753 16.5348C109.628 16.0504 109.328 15.4491 109.619 14.9164C109.942 14.5984 110.837 14.5143 111.303 14.4417C113.828 14.071 113.187 11.1381 113.467 9.34251C113.507 9.09057 114.674 9.15617 114.85 9.1891C115.473 9.30586 116.301 8.84564 116.424 9.72117C116.422 10.4055 116.365 14.0931 116.518 14.5052C116.559 14.5153 116.635 14.5378 116.674 14.5368C117.522 14.6825 119.228 14.5442 120.173 14.5778C120.21 15.2004 120.323 17.1008 120.063 17.6048C119.562 18.0753 117.607 17.485 116.738 17.7363C116.697 17.7781 116.591 17.8803 116.56 17.9202C116.431 18.2381 116.403 19.7646 116.441 20.1509C116.604 21.8096 116.052 26.7887 116.931 28.0488C118.241 29.3177 119.037 28.332 120.091 28.8207C120.26 29.1742 120.493 29.6099 120.446 30.0074L120.34 29.9637L120.206 29.6114C119.803 30.1805 121.306 32.1582 118.257 32.0538C116.891 32.0071 115.581 31.8105 114.373 30.9967C114.122 30.828 113.11 28.8953 112.989 28.4705C112.855 27.431 112.905 25.9259 112.907 24.8491L112.918 18.0262L112.804 17.8914C112.331 17.7007 110.919 17.6255 110.441 17.7224Z" fill="#9EA8F4"/>
<path d="M116.561 17.9219C116.867 18.1782 117.228 18.207 117.616 18.1997L117.019 18.2667C116.968 18.7504 117.011 19.3107 117.032 19.7997C117.145 22.3689 117.047 24.9378 117.006 27.507C117.003 27.7264 117.011 27.8396 116.932 28.0504C116.053 26.7904 116.605 21.8112 116.442 20.1526C116.404 19.7663 116.432 18.2398 116.561 17.9219Z" fill="#9EA8F4"/>
<path d="M67.0637 17.8516C67.1307 18.0757 67.1578 18.1723 67.1862 18.4115L67.1628 18.3615L67.305 18.3682L67.2393 18.4245L67.1607 18.317L67.3662 18.2848L67.4756 18.1026L67.4564 27.3475C67.4574 28.1577 67.5244 30.8444 67.4405 31.5195C67.3095 31.6313 67.218 31.6313 67.0465 31.6579C67.1217 31.3587 67.0411 29.0177 67.04 28.5541L67.0483 21.4568C67.052 20.2977 67.0168 18.9926 67.0637 17.8516Z" fill="#9EA8F4"/>
<path d="M108.423 19.3672C108.499 20.4808 108.794 19.7958 108.826 20.8019C108.862 21.9423 108.822 23.1 108.817 24.2414L108.817 30.1221C108.62 28.5079 108.787 26.471 108.74 24.8224C108.725 24.3119 108.769 23.3388 108.689 22.8727C108.706 22.9748 108.635 23.9294 108.629 24.1345C108.584 25.8719 108.703 27.6129 108.595 29.3468C108.566 29.8154 108.467 30.2927 108.461 30.7603C108.124 29.5056 108.311 20.9655 108.423 19.3672Z" fill="#9EA8F4"/>
<path d="M116.422 9.72766L116.531 10.0911C116.558 9.83795 116.531 9.71191 116.66 9.52344L116.969 9.53781C117.046 9.90073 117.076 14.1572 116.981 14.4045L116.672 14.5433C116.634 14.5443 116.558 14.5218 116.517 14.5117C116.363 14.0996 116.42 10.412 116.422 9.72766Z" fill="#9EA8F4"/>
<path d="M87.0726 24.086C87.0733 24.848 87.1319 28.8191 86.9853 29.3194L86.93 29.2923C86.7669 28.4334 86.814 22.4051 86.9696 21.5703C87.0364 21.8498 86.9996 22.7968 87.0419 23.2162L87.0726 24.086Z" fill="#9EA8F4"/>
<path d="M108.463 30.7549C108.469 30.2872 108.567 29.8099 108.596 29.3413C108.704 27.6074 108.585 25.8664 108.63 24.129C108.636 23.9239 108.707 22.9694 108.69 22.8672C108.77 23.3333 108.726 24.3064 108.741 24.817C108.789 26.4655 108.621 28.5025 108.818 30.1166C108.838 30.5401 108.884 31.1273 108.847 31.5378L108.711 31.5746C108.77 31.1941 108.435 31.1506 108.463 30.7549Z" fill="#9EA8F4"/>
<path d="M105.668 31.8115C106.291 31.6575 107.82 31.7305 108.598 31.6719C108.078 31.9407 108.327 32.1775 107.786 32.2363C107.279 32.2915 106.721 32.2604 106.21 32.2488L106.17 32.1759C106.279 32.118 106.307 32.0256 106.365 31.9116C106.229 31.8442 106.089 31.8678 105.937 31.8775L105.668 31.8115Z" fill="#9EA8F4"/>
<path d="M67.0842 15.0781C67.194 15.2462 67.1622 15.7767 67.1626 16.008C67.1798 15.8212 67.1973 15.7034 67.2354 15.5196C67.6105 15.6281 67.4812 17.7196 67.4761 18.1058L67.3668 18.288L67.1612 18.3202L67.2398 18.4277L67.3055 18.3714L67.1633 18.3647L67.1867 18.4147C67.1583 18.1754 67.1313 18.0789 67.0643 17.8547C67.0404 16.9307 67.0664 16.0025 67.0842 15.0781Z" fill="#9EA8F4"/>
<path d="M110.441 17.7298C110.92 17.6329 112.331 17.7081 112.804 17.8988L112.919 18.0336C112.542 18.2945 110.967 18.2783 110.55 18.1406C110.556 17.9469 110.542 17.8942 110.441 17.7298Z" fill="#9EA8F4"/>
<path d="M87.1016 16.8704C86.9563 17.0832 87.1931 18.3892 86.8901 18.6272C86.6889 18.1686 86.6138 16.2733 86.7748 15.7556C86.8028 15.6646 87.0471 15.6327 87.1446 15.6094C87.1562 16.0118 87.1228 16.4647 87.1016 16.8704Z" fill="#9EA8F4"/>
<path d="M137.476 21.2031C137.857 21.3686 137.749 21.0875 137.932 21.3444C138.013 21.9433 137.906 23.2882 137.764 23.867C137.618 22.921 137.415 22.1667 137.476 21.2031Z" fill="#9EA8F4"/>
<path d="M105.936 31.8792C106.089 31.8695 106.228 31.8459 106.365 31.9133C106.307 32.0273 106.278 32.1197 106.17 32.1776L106.209 32.2505C105.959 32.3045 105.507 32.3605 105.434 32.0384C105.628 31.8625 105.642 31.9098 105.936 31.8792Z" fill="#9EA8F4"/>
<path d="M126.368 31.6562C126.617 31.7813 126.863 31.91 127.121 32.0143L127.034 32.1799C126.685 32.3841 126.527 32.2598 126.305 31.9464L126.368 31.6562Z" fill="#9EA8F4"/>
<path d="M87.0391 23.2165C87.0725 22.3979 86.9927 21.0391 87.0964 20.3281C87.1168 20.8711 87.1769 23.6956 87.0698 24.0862L87.0391 23.2165Z" fill="#9EA8F4"/>
</svg>
